<?xml version="1.0" encoding="UTF-8"?>
<svg width="33px" height="31px" viewBox="0 0 33 31" version="1.1" xmlns="http://www.w3.org/2000/svg" xmlns:xlink="http://www.w3.org/1999/xlink">
    <!-- Generator: Sketch 53.2 (72643) - https://sketchapp.com -->
    <title>Combined Shape</title>
    <desc>Created with Sketch.</desc>
    <g id="Page-1" stroke="none" stroke-width="1" fill="none" fill-rule="evenodd">
        <g id="Catalog" transform="translate(-97.000000, -39.000000)" fill="#233142">
            <g id="Nav-bar" transform="translate(-0.000000, 0.000000)">
                <path d="M104.458525,56.6240642 L104.458525,53.9935921 C104.458525,53.4413346 104.906218,52.9936414 105.458476,52.9936414 C106.010734,52.9936414 106.458427,53.4413346 106.458427,53.9935921 L106.458427,57.3618554 L109.31526,58.4157804 C109.838487,58.6088059 110.115506,59.1809388 109.942437,59.7111014 C109.777602,60.2160423 109.234642,60.4917524 108.729701,60.3269173 C108.718154,60.323148 108.70668,60.3191603 108.695285,60.3149564 L106.458427,59.4897488 L106.458427,61.9888335 C106.458427,62.541091 106.010734,62.9887842 105.458476,62.9887842 C104.906218,62.9887842 104.458525,62.541091 104.458525,61.9888335 L104.458525,58.7519577 L101.676483,57.725624 C101.153256,57.5325985 100.876237,56.9604656 101.049305,56.430303 C101.214141,55.9253621 101.757101,55.649652 102.262042,55.8144871 C102.273589,55.8182564 102.285063,55.8222441 102.296458,55.826448 L104.458525,56.6240642 Z M129.646636,46.6516457 C129.857501,46.9099089 129.983971,47.2397852 129.983971,47.5992001 L129.983971,62.6606969 C129.983971,63.3741599 129.485617,63.9712259 128.818019,64.1227834 C128.670552,64.2764848 128.48627,64.3992462 128.272467,64.4759976 L113.740699,69.6926387 C113.550302,69.7801735 113.338415,69.828985 113.115128,69.828985 C113.104726,69.828985 113.094348,69.828879 113.083996,69.8286682 C112.804047,69.928841 112.489636,69.9390267 112.185972,69.8367906 C112.177312,69.833875 112.168682,69.830873 112.160082,69.8277848 L98.1507327,64.7970053 C97.6908504,64.6318608 97.3672886,64.2542991 97.2523107,63.813672 C97.0929386,63.575485 97,63.2890859 97,62.9809798 L97,46.7543191 C97,46.0757097 97.4508533,45.5024028 98.0693629,45.3175952 C98.1528869,45.265947 98.243015,45.2222071 98.3390885,45.1877364 L112.087886,40.2547298 C112.442752,39.9398473 112.951672,39.8184801 113.433591,39.9805515 C113.442084,39.9834077 113.450549,39.9863473 113.458984,39.9893698 L128.436437,45.3560156 C128.522742,45.3777678 128.606606,45.4078639 128.686804,45.4457259 L128.710179,45.4541015 C129.243243,45.6451064 129.593065,46.1220399 129.646636,46.6516457 Z M123.959389,46.7165101 L113.151201,42.8437744 L102.55208,46.6466913 L113.24015,50.4847943 C113.27449,50.4971257 113.308069,50.5106416 113.340859,50.5252796 L123.959389,46.7165101 Z M126.985428,48.5892506 L114.612524,53.0272983 C114.61377,53.0523556 114.6144,53.0775749 114.6144,53.1029413 L114.6144,66.4151763 L126.985428,61.9742014 L126.985428,48.5892506 Z M111.629522,52.8996601 C111.624076,52.8901135 111.618736,52.8804824 111.613503,52.8707679 L99.9985428,48.6998173 L99.9985428,62.4904517 L111.615857,66.6622476 L111.615857,53.1029413 C111.615857,53.0339949 111.620511,52.9661355 111.629522,52.8996601 Z" id="Combined-Shape"></path>
            </g>
        </g>
    </g>
</svg>