<?xml version="1.0" encoding="UTF-8"?>
<svg width="19px" height="17px" viewBox="0 0 19 17" version="1.1" xmlns="http://www.w3.org/2000/svg" xmlns:xlink="http://www.w3.org/1999/xlink">
    <!-- Generator: Sketch 53.2 (72643) - https://sketchapp.com -->
    <title>Combined Shape</title>
    <desc>Created with Sketch.</desc>
    <g id="Page-1" stroke="none" stroke-width="1" fill="none" fill-rule="evenodd">
        <g id="Catalog" transform="translate(-306.000000, -395.000000)" fill="#233142">
            <g id="1" transform="translate(85.000000, 168.000000)">
                <path d="M239.076354,230.000958 C239.353433,230.021878 239.598989,230.15571 239.767134,230.356562 C239.845384,230.426291 239.907554,230.516275 239.944668,230.622195 C239.9453,230.623999 239.945923,230.625805 239.946539,230.627614 C239.965931,230.684588 239.976976,230.742401 239.980326,230.799718 C239.993229,230.863834 240,230.93017 240,230.998087 L240,239.998087 C240,240.550371 239.552285,240.998087 239,240.998087 C238.925646,240.998087 238.853188,240.989972 238.783462,240.974579 L230.483581,243.883684 C230.4677,243.889251 230.451747,243.894153 230.435753,243.898407 C230.422912,243.904633 230.409917,243.910593 230.396776,243.91628 C230.307638,243.964219 230.207331,243.991054 230.104083,243.992735 C230.069871,243.996273 230.035147,243.998087 230,243.998087 C229.763614,243.998087 229.546385,243.916067 229.37522,243.778934 L221.506456,241.020344 C221.22665,240.922251 221.055784,240.652302 221.071436,240.369974 C221.025353,240.255016 221,240.129512 221,239.998087 L221,230.998087 C221,230.766115 221.078985,230.552591 221.211529,230.382942 C221.272792,230.197496 221.416421,230.041609 221.614786,229.972075 L229.990217,227.036194 C230.143705,226.982391 230.303892,226.990551 230.44349,227.047551 C230.537375,227.035433 230.635407,227.044051 230.73107,227.076612 C230.732884,227.077229 230.734694,227.077854 230.736502,227.078488 L239.076354,230.000958 Z M237.478191,230.808915 L230.3205,228.3007 C230.314817,228.298709 230.30918,228.296647 230.303588,228.294515 L223.252565,230.766145 L230.406362,233.274086 C230.412334,233.276179 230.418255,233.278351 230.424127,233.2806 L237.478191,230.808915 Z M238,231.993252 L230.863696,234.493752 C230.95034,234.641814 231,234.814151 231,234.998087 L231,242.335333 L238,239.881836 L238,231.993252 Z M223,232.045452 L223,239.998087 C223,240.057013 222.994903,240.114749 222.985126,240.170878 L229,242.279542 L229,234.998087 C229,234.706954 229.124411,234.444878 229.322969,234.262125 L223,232.045452 Z" id="Combined-Shape"></path>
            </g>
        </g>
    </g>
</svg>