<?xml version="1.0" encoding="UTF-8"?>
<svg width="22px" height="30px" viewBox="0 0 22 30" version="1.1" xmlns="http://www.w3.org/2000/svg" xmlns:xlink="http://www.w3.org/1999/xlink">
    <!-- Generator: Sketch 53.2 (72643) - https://sketchapp.com -->
    <title>location, pin, position, map, navigation</title>
    <desc>Created with Sketch.</desc>
    <g id="Page-1" stroke="none" stroke-width="1" fill="none" fill-rule="evenodd">
        <g id="Catalog" transform="translate(-50.000000, -40.000000)" fill="#233142">
            <g id="Nav-bar" transform="translate(-0.000000, 0.000000)">
                <g id="location,-pin,-position,-map,-navigation" transform="translate(50.000000, 40.000000)">
                    <path d="M10.9090909,0 C4.88690789,0.00682016542 0.00661349504,5.03962277 0,11.2499978 C0,21.4087458 9.37509091,29.2603067 9.77272727,29.5899317 C10.4375398,30.1366894 11.3806421,30.1366894 12.0454545,29.5899317 C12.4432727,29.2603067 21.8181818,21.4087458 21.8181818,11.2499978 C21.8115683,5.03962277 16.9312739,0.00682016542 10.9090909,0 Z M10.9090909,25.60912 C8.61145455,23.3459954 3.63636364,17.6999965 3.63636364,11.2499978 C3.63636364,7.10786298 6.89247455,3.74999926 10.9090909,3.74999926 C14.9257073,3.74999926 18.1818182,7.10786298 18.1818182,11.2499978 C18.1818182,17.6999965 13.2067273,23.3459954 10.9090909,25.60912 Z" id="Shape" fill-rule="nonzero"></path>
                    <path d="M10.4727273,7.27272727 C8.54475142,7.27272727 6.98181818,8.90078273 6.98181818,10.9090909 C6.98181818,12.9173991 8.54475142,14.5454545 10.4727273,14.5454545 C12.4007031,14.5454545 13.9636364,12.9173991 13.9636364,10.9090909 C13.9610403,8.90190392 12.3996268,7.2754315 10.4727273,7.27272727 Z" id="Path"></path>
                </g>
            </g>
        </g>
    </g>
</svg>