<?xml version="1.0" encoding="UTF-8"?>
<svg width="24px" height="24px" viewBox="0 0 24 24" version="1.1" xmlns="http://www.w3.org/2000/svg" xmlns:xlink="http://www.w3.org/1999/xlink">
    <!-- Generator: Sketch 53.2 (72643) - https://sketchapp.com -->
    <title>Combined Shape</title>
    <desc>Created with Sketch.</desc>
    <g id="Page-1" stroke="none" stroke-width="1" fill="none" fill-rule="evenodd">
        <g id="Profile---orders-details" transform="translate(-542.000000, -759.000000)" stroke="#233142" stroke-width="2">
            <g id="Order-detail">
                <path d="M551.906394,773.093606 C552.986238,774.078013 554.236429,775.003841 555.715594,775.919147 C556.997401,774.753073 557.478306,773.729832 558.652889,773.251777 C560.082788,773.660995 563.837795,775.795876 564,778.052703 C562.676835,779.595874 560.836985,781.504499 557.51826,782 C555.726233,781.472019 553.011757,779.498439 550.295685,776.980998 L550.277198,777 C549.888694,776.627189 549.505912,776.249199 549.131384,775.868616 C548.750801,775.494088 548.372811,775.111306 548,774.722802 L548.019002,774.704315 C545.501561,771.988243 543.527981,769.273767 543,767.48174 C543.495501,764.163015 545.404126,762.323165 546.947297,761 C549.204124,761.162205 551.339005,764.917212 551.748223,766.347111 C551.270168,767.521694 550.246927,768.002599 549.080853,769.284406 C549.996159,770.763571 550.921987,772.013762 551.906394,773.093606 Z" id="Combined-Shape"></path>
            </g>
        </g>
    </g>
</svg>