<?xml version="1.0" encoding="UTF-8"?>
<svg width="30px" height="30px" viewBox="0 0 30 30" version="1.1" xmlns="http://www.w3.org/2000/svg" xmlns:xlink="http://www.w3.org/1999/xlink">
    <!-- Generator: Sketch 53.2 (72643) - https://sketchapp.com -->
    <title>Shape</title>
    <desc>Created with Sketch.</desc>
    <g id="Page-1" stroke="none" stroke-width="1" fill="none" fill-rule="evenodd">
        <g id="Super-order---join" transform="translate(-1305.000000, -40.000000)" fill="#233142" fill-rule="nonzero">
            <g id="Nav-bar">
                <path d="M1321.88485,40 C1314.64519,40.0087751 1308.77847,45.8755286 1308.76969,53.1152349 C1308.77891,55.9397542 1309.70851,58.6843043 1311.41764,60.9330391 L1305.57203,66.7786866 C1305.08498,67.249101 1304.88965,67.9457137 1305.06111,68.6007812 C1305.23257,69.2558486 1305.74415,69.767427 1306.39921,69.9388908 C1307.05427,70.1103546 1307.75088,69.91502 1308.22129,69.4279641 L1314.0669,63.5823165 C1316.31565,65.2915699 1319.06026,66.2212442 1321.88485,66.2304698 C1329.12815,66.2304698 1335,60.3585791 1335,53.1152349 C1335,45.8718907 1329.12815,40 1321.88485,40 Z M1321.72131,62.6229508 C1316.56062,62.6229508 1312.37705,58.4393821 1312.37705,53.2786885 C1312.37705,48.117995 1316.56062,43.9344262 1321.72131,43.9344262 C1326.88201,43.9344262 1331.06557,48.117995 1331.06557,53.2786885 C1331.0595,58.4368633 1326.87949,62.6168749 1321.72131,62.6229508 Z" id="Shape"></path>
            </g>
        </g>
    </g>
</svg>