<?xml version="1.0" encoding="UTF-8"?>
<svg width="8px" height="5px" viewBox="0 0 8 5" version="1.1" xmlns="http://www.w3.org/2000/svg" xmlns:xlink="http://www.w3.org/1999/xlink">
    <!-- Generator: Sketch 53.2 (72643) - https://sketchapp.com -->
    <title>Path Copy</title>
    <desc>Created with Sketch.</desc>
    <g id="Page-1" stroke="none" stroke-width="1" fill="none" fill-rule="evenodd">
        <g id="Super-order---join" transform="translate(-1023.000000, -738.000000)" fill="#233142">
            <g id="Edit-order" transform="translate(219.000000, 726.000000)">
                <path d="M811.761052,12.1534044 C811.478056,11.9342896 811.059382,11.969938 810.823199,12.2332587 L808.004247,15.4014757 L805.185294,12.2332587 C805.034435,12.0572777 804.793871,11.9713451 804.556227,12.0085476 C804.318582,12.0457501 804.120919,12.2002859 804.039344,12.4126539 C803.957769,12.6250218 804.005003,12.8621024 804.16286,13.0326121 L807.49283,16.7757797 C807.619289,16.9178584 807.80657,17 808.004047,17 C808.201524,17 808.388804,16.9178584 808.515264,16.7757797 L811.845234,13.0326121 C812.080877,12.7679641 812.043208,12.3745491 811.761052,12.1534044 Z" id="Path-Copy" transform="translate(808.000000, 14.500000) scale(1, -1) translate(-808.000000, -14.500000) "></path>
            </g>
        </g>
    </g>
</svg>