<?xml version="1.0" encoding="UTF-8"?>
<svg width="30px" height="30px" viewBox="0 0 30 30" version="1.1" xmlns="http://www.w3.org/2000/svg" xmlns:xlink="http://www.w3.org/1999/xlink">
    <!-- Generator: Sketch 53.2 (72643) - https://sketchapp.com -->
    <title>Shape</title>
    <desc>Created with Sketch.</desc>
    <g id="Page-1" stroke="none" stroke-width="1" fill="none" fill-rule="evenodd">
        <g id="Super-order---join" transform="translate(-1360.000000, -40.000000)" fill="#233142" fill-rule="nonzero">
            <g id="Nav-bar">
                <path d="M1381.67744,55.9469098 C1385.2992,52.273742 1385.27038,46.3659581 1381.61294,42.7282678 C1377.95551,39.0905774 1372.04449,39.0905774 1368.38706,42.7282678 C1364.72962,46.3659581 1364.7008,52.273742 1368.32256,55.9469098 C1363.31144,57.9160311 1360.01199,62.7443983 1360,68.1260048 C1360,69.1609838 1360.83947,70 1361.875,70 L1388.125,70 C1389.16053,70 1390,69.1609838 1390,68.1260048 C1389.98801,62.7443983 1386.68856,57.9160311 1381.67744,55.9469098 Z M1375,43.7640668 C1378.1066,43.7640668 1380.625,46.2811155 1380.625,49.3860525 C1380.625,52.4909894 1378.1066,55.0080382 1375,55.0080382 C1371.8934,55.0080382 1369.375,52.4909894 1369.375,49.3860525 C1369.37841,46.2825284 1371.89481,43.7674751 1375,43.7640668 Z M1363.9375,66.2520095 C1364.83522,61.8927132 1368.67194,58.7623704 1373.125,58.7560286 L1376.875,58.7560286 C1381.32806,58.7623704 1385.16478,61.8927132 1386.0625,66.2520095 L1363.9375,66.2520095 Z" id="Shape"></path>
            </g>
        </g>
    </g>
</svg>